<svg xmlns="http://www.w3.org/2000/svg" viewBox="0 0 8 8" width="512"
	height="512" color="black">
	<use href="icons.svg#eval" x="0" y="0" width="1" height="1" />
	<use href="icons.svg#cross" x="1" y="0" width="1" height="1" />
	<use href="icons.svg#tile" color="blue" x="2" y="0" width="1" height="1" />
	<use href="icons.svg#tile" color="red" x="3" y="0" width="1" height="1" />
	<use href="icons.svg#tile" color="green" x="4" y="0" width="1" height="1" />
	<use href="icons.svg#tile" color="yellow" x="5" y="0" width="1" height="1" />
	<use href="icons.svg#paste" x="6" y="0" width="1" height="1" />
	<use href="icons.svg#menu" x="7" y="0" width="1" height="1" />

	<use href="icons.svg#cross" x="1" y="1" width="1" height="1" />
	<use href="icons.svg#delete" x="3" y="1" width="1" height="1" />
	<use href="icons.svg#cut" x="4" y="1" width="1" height="1" />
	<use href="icons.svg#copy" x="5" y="1" width="1" height="1" />
	<use href="icons.svg#paste" x="6" y="1" width="1" height="1" />
	<use href="icons.svg#menu" x="7" y="1" width="1" height="1" />

	<use href="icons.svg#eval" color="blue" x="0" y="2" width="1" height="1" />
	<use href="icons.svg#tick-bwd-stable" x="2" y="2" width="1" height="1" />
	<use href="icons.svg#tick-bwd" x="3" y="2" width="1" height="1" />
	<use href="icons.svg#tick" x="4" y="2" width="1" height="1" />
	<use href="icons.svg#tick-stable" x="5" y="2" width="1" height="1" />
	<use href="icons.svg#automation" x="7" y="2" width="1" height="1" />

	<use href="icons.svg#cross" x="1" y="3" width="1" height="1" />
	<use href="icons.svg#monitor" x="2" y="3" width="1" height="1" />
	<use href="icons.svg#assert" x="3" y="3" width="1" height="1" />
	<use href="icons.svg#tick" x="4" y="3" width="1" height="1" />
</svg>
