<svg xmlns="http://www.w3.org/2000/svg">
	<defs>
		<g id="cross">
			<line x2="1" y2="1" />
			<line x1="1" y1="0" x2="0" y2="1" />
		</g>
		<rect id="tile" width="1" height="1" />
		<g id="eval">
			<path
				d="M.08.9.28.69M.87.45A.35.35 0 01.53.8.35.35 0 01.18.45.35.35 0 01.53.1.35.35 0 01.87.45Z" />
			<path d="m.42.39.5.25-.5.25z" fill="var(--foreground)" />
		</g>
		<path id="menu"
			d="M.5.45A.05.05 0 01.55.5.05.05 0 01.5.55.05.05 0 01.45.5.05.05 0 01.5.45ZM.8.45A.05.05 0 01.85.5.05.05 0 01.8.55.05.05 0 01.75.5.05.05 0 01.8.45ZM.2.45A.05.05 0 01.25.5.05.05 0 01.2.55.05.05 0 01.15.5.05.05 0 01.2.45Z" />
		<path id="tick" d="M.11.31.5.49.11.69ZM.5.31.89.49.5.69Z" />
		<path id="tick-stable" d="M.25.31.64.49.25.69ZM.64.69H.75V.31H.64Z" />
		<path id="delete"
			d="M.23.21C.2.21.18.23.18.26L.18.95C.18.98.2 1 .23 1L.77 1C.8 1 .82.98.82.95L.82.26C.82.23.8.21.77.21L.23.21ZM.29.27C.29.27.29.27.29.27.31.27.33.29.33.32L.33.89C.33.92.31.94.29.94.27.94.26.92.26.89L.26.32C.26.29.27.27.29.27ZM.49.27C.49.27.5.27.5.27.52.27.54.29.54.32L.54.89C.54.92.52.94.5.94.48.94.46.92.46.89L.46.32C.46.29.48.27.49.27ZM.7.27C.7.27.7.27.71.27.73.27.74.29.74.32L.74.89C.74.92.73.94.71.94.69.94.67.92.67.89L.67.32C.67.29.68.27.7.27ZM.41.01C.4.01.39.02.39.03L.39.06C.39.06.39.06.39.07.39.07.39.07.39.07L.15.07C.14.07.12.08.12.1L.12.15C.12.17.14.19.15.19L.85.19C.86.19.88.17.88.15L.88.1C.88.08.86.07.85.07L.61.07C.61.07.61.07.61.07.61.07.61.06.61.06L.61.03C.61.02.6.01.59.01L.41.01Z" />
		<g id="cut">
			<path
				d="M.2.42C.1.31.07.18.07.06L.69.69C.72.66.75.64.8.64.88.64.95.72.95.8.95.88.88.95.8.95.75.95.72.93.68.9Z"
				fill="none" />
			<circle cx="0.8" cy="0.8" r="0.075" stroke="none" />
			<path
				d="m.99.01c-.23.23-.46.47-.69.7-.05-.06-.16-.07-.22-.02-.08.06-.08.19-.01.26.07.06.19.05.25-.02.17-.18.35-.36.53-.54.1-.1.14-.24.14-.38zm-.48.57c.06 0 .04.11-.02.07-.03-.02-.02-.07.02-.07zm-.34.16c.04 0 .08.02.09.06 0 0 0 .01 0 .01 0 .05-.03.09-.08.09-.1.01-.11-.15-.01-.16z"
				stroke="none" />
		</g>
		<g id="copy">
			<rect x="0.13" y="0.1" ry="0.05" width="0.61" height="0.86" />
			<rect x="0.33" y="0.05" ry="0.05" width="0.53" height="0.74"
				fill="var(--foreground)" stroke="none" />
		</g>
		<g id="paste">
			<rect x="0.13" y="0.1" ry="0.05" width="0.61" height="0.86"
				transform="scale(1,-1)" style="transform-origin: center" />
			<rect x="0.34" y="0.01" ry="0.05" width="0.19" height="0.1"
				fill="var(--foreground)" />
		</g>
	</defs>
</svg>
